<svg id="Text" xmlns="http://www.w3.org/2000/svg" width="672" height="118" viewBox="0 0 672 118">
  <metadata><?xpacket begin="﻿" id="W5M0MpCehiHzreSzNTczkc9d"?>
<x:xmpmeta xmlns:x="adobe:ns:meta/" x:xmptk="Adobe XMP Core 5.6-c138 79.159824, 2016/09/14-01:09:01        ">
   <rdf:RDF xmlns:rdf="http://www.w3.org/1999/02/22-rdf-syntax-ns#">
      <rdf:Description rdf:about=""/>
   </rdf:RDF>
</x:xmpmeta>
                                                                                                    
                                                                                                    
                                                                                                    
                                                                                                    
                                                                                                    
                                                                                                    
                                                                                                    
                                                                                                    
                                                                                                    
                                                                                                    
                                                                                                    
                                                                                                    
                                                                                                    
                                                                                                    
                                                                                                    
                                                                                                    
                                                                                                    
                                                                                                    
                                                                                                    
                                                                                                    
                           
<?xpacket end="w"?></metadata>
<defs>
    <style>
      .cls-1 {
        fill: #ff5722;
      }

      .cls-1, .cls-2, .cls-3, .cls-4, .cls-5, .cls-6 {
        fill-rule: evenodd;
      }

      .cls-2 {
        fill: #ea4335;
      }

      .cls-3 {
        fill: #34a853;
      }

      .cls-4 {
        fill: #4285f4;
      }

      .cls-5 {
        fill: #3f51b5;
      }

      .cls-6 {
        fill: #fbbc05;
      }
    </style>
  </defs>
  <path id="s" class="cls-1" d="M637.756,102.006v-17.4H586v17.4h51.757Zm17.252-69.6V15.01H603.251v17.4h51.757Zm-51.757,17.4h34.5v17.4h-34.5v-17.4Zm34.5,34.8h17.252v-17.4H637.756v17.4ZM586,49.808h17.252v-17.4H586v17.4Z"/>
  <path id="r" class="cls-2" d="M517.253,102V67.2h34.488V49.8H517.253V32.4h34.488v-17.4H500.008v87h17.245Zm34.488-52.2h17.245V32.4H551.741V49.8ZM534.5,84.6h17.244V67.2H534.5V84.6ZM551.741,102h17.245V84.6H551.741V102Z"/>
  <path id="a" class="cls-3" d="M431.258,101.985v-34.8h34.5v34.8h17.253v-69.6H465.762v17.4h-34.5v-17.4H414.006v69.6h17.252Zm34.5-87v17.4h-34.5v-17.4h34.5Z"/>
  <path id="w" class="cls-4" d="M327.408,84.593V15.014h-17.4V84.593h17.4Zm34.79,17.4h17.394v-17.4H362.2v17.4Zm-34.79,0H344.8v-17.4H327.408v17.4Zm69.579-17.4V15.014h-17.4V84.593h17.4Zm-34.789,0V32.408H344.8V84.593H362.2Z"/>
  <path id="S-2" data-name="S" class="cls-5" d="M275.756,102.006v-17.4H224v17.4h51.757Zm17.252-69.6V15.01H241.251v17.4h51.757Zm-51.757,17.4h34.5v17.4h-34.5v-17.4Zm34.5,34.8h17.252v-17.4H275.756v17.4ZM224,49.808h17.252v-17.4H224v17.4Z"/>
  <path id="c" class="cls-6" d="M207,32.406H189.75V49.8H207V32.406ZM189.75,15.011h-34.5V32.406h34.5V15.011ZM207,67.2H189.75V84.59H207V67.2Zm-51.743-34.79H138.006V84.59h17.248V32.406Zm34.5,52.184h-34.5v17.395h34.5V84.59Z"/>
  <path id="i" class="cls-2" d="M120.988,101.991v-87H104.005v87h16.983Z"/>
  <path id="P" class="cls-4" d="M34.505,102.007V67.2h35V49.8h-35V32.4h35V15H17.007v87h17.5Zm35-52.2H87V32.4H69.5V49.8Z"/>
</svg>
